<svg width="101" height="104" viewBox="0 0 101 104" fill="none" xmlns="http://www.w3.org/2000/svg">
<path d="M78.6959 49.7129L78.6963 49.7125C85.6258 42.5396 89.7794 32.9673 92.1817 25.5855C92.3602 25.0429 92.5333 24.4985 92.7009 23.9523C99.7948 40.2175 94.4296 63.3387 77.87 80.4621C58.8433 100.129 32.4198 104.333 17.1212 91.4038C17.7609 88.2071 18.5861 85.0525 19.5922 81.9574C21.7826 75.2467 25.2598 67.5947 30.4409 62.2373C32.4297 60.1809 35.0357 58.9806 38.4838 58.3299C42.0502 57.6595 46.0527 57.6414 50.6812 57.6414H50.8812H50.9256C55.2759 57.6414 60.2106 57.6414 64.8436 56.7622C69.6866 55.8461 74.6274 53.9199 78.6959 49.7129ZM81.8258 22.0392L81.8258 22.0393C79.6425 28.7426 76.1652 36.4024 70.9839 41.76C68.9952 43.8164 66.3892 45.0166 62.9411 45.6674C59.3746 46.3378 55.3722 46.3559 50.7437 46.3559H50.5437H50.4997C46.149 46.3558 41.2147 46.3558 36.5823 47.2274L36.5813 47.2276C31.7373 48.144 26.7969 50.0779 22.729 54.2843L22.7286 54.2847C15.7983 61.4585 11.6446 71.032 9.24245 78.4141L9.24233 78.4145C9.06179 78.9701 8.88954 79.5149 8.7256 80.0488C1.62927 63.7834 6.99396 40.6597 23.555 23.535C42.581 3.86148 69.0042 -0.328898 84.3033 12.5934C83.6614 15.79 82.8341 18.9444 81.8258 22.0392Z" stroke="#7D8D71" stroke-width="2"/>
</svg>
