<svg width="151" height="150" viewBox="0 0 151 150" fill="none" xmlns="http://www.w3.org/2000/svg">
<path fill-rule="evenodd" clip-rule="evenodd" d="M23.5713 132.384C47.2571 152.387 88.2961 145.991 117.406 117.052C143.747 90.8558 151.661 54.7921 138.21 30.5353C137.644 32.5259 137.025 34.5016 136.355 36.4602C132.783 47.0244 126.643 60.5884 116.484 70.7026C110.666 76.4882 103.58 79.1667 96.5121 80.4524C89.7017 81.6953 82.416 81.6953 75.8481 81.6953H75.5481C68.6374 81.6953 62.4873 81.7167 56.9746 82.7131C51.6014 83.6881 47.3698 85.5202 44.1054 88.7666C36.1007 96.7272 30.799 108.009 27.4879 117.77C25.8716 122.554 24.5634 127.435 23.5713 132.384ZM12.9606 119.463C-0.490903 95.2058 7.42285 59.142 33.7642 32.946C62.8743 3.99645 103.913 -2.37845 127.599 17.6141C126.603 22.5627 125.292 27.4441 123.672 32.2282C120.371 41.978 115.07 53.2707 107.065 61.2313C103.8 64.4777 99.5689 66.3098 94.1957 67.2848C88.683 68.2812 82.5329 68.3026 75.6222 68.3026H75.3222C68.7543 68.3026 61.4686 68.3026 54.6582 69.5347C47.5904 70.8204 40.5041 73.5097 34.6864 79.2953C24.5269 89.4094 18.3876 102.974 14.8148 113.538C14.1105 115.623 13.4924 117.598 12.9606 119.463Z" stroke="#7D8D71" stroke-width="2"/>
</svg>
