<svg width="202" height="204" viewBox="0 0 202 204" fill="none" xmlns="http://www.w3.org/2000/svg">
<path d="M156.017 96.8554L156.017 96.855C169.722 82.9402 177.97 64.3251 182.755 49.899C183.386 48.0165 183.984 46.1225 184.547 44.218C200.585 76.668 189.955 123.867 155.819 158.49C117.391 197.453 63.6044 205.932 32.5089 179.658C33.8099 173.165 35.5059 166.759 37.5871 160.478C41.9841 147.261 48.9941 132.088 59.5096 121.422C63.6737 117.199 69.1019 114.775 76.136 113.473C83.3793 112.138 91.4835 112.105 100.719 112.105H101.119H101.163C109.892 112.105 119.682 112.105 128.853 110.398C138.405 108.626 148.069 104.917 156.017 96.8554ZM72.6965 93.5837L72.6955 93.5839C63.143 95.3563 53.4794 99.0805 45.5319 107.141L45.5315 107.142C31.8258 121.058 23.5775 139.674 18.7927 154.101L18.7925 154.101C18.1419 156.066 17.5458 157.96 17.0043 159.783C0.962883 127.333 11.5922 80.1307 45.7295 45.5065C84.1578 6.53016 137.944 -1.92119 169.04 24.339C167.734 30.832 166.033 37.238 163.947 43.5198L164.896 43.8302L163.947 43.5198C159.565 56.7214 152.555 71.9091 142.039 82.5744C137.875 86.7978 132.447 89.222 125.413 90.5239C118.17 91.8592 110.065 91.8914 100.83 91.8914H100.43H100.386C91.6572 91.8914 81.8674 91.8914 72.6965 93.5837Z" stroke="#7D8D71" stroke-width="2"/>
</svg>
