<svg width="75" height="78" viewBox="0 0 79 69" fill="none" xmlns="http://www.w3.org/2000/svg">
<path d="M47.266 55.47L47.2665 55.4703C54.1427 59.302 62.1793 60.4686 68.1847 60.7503C68.4533 60.7638 68.722 60.7756 68.9907 60.7858C58.5712 69.2951 40.6685 69.9736 24.6113 61.0148C5.98713 50.6192 -2.8749 31.3606 3.15172 16.9826C5.59498 16.8069 8.04739 16.7759 10.496 16.8899C15.9236 17.1496 22.3056 18.1963 27.365 21.0191C29.2752 22.0848 30.7153 23.7978 31.9479 26.2932C33.222 28.8773 34.114 31.936 35.1357 35.4988L35.1798 35.6526L35.1915 35.6935C36.1496 39.0348 37.2412 42.8419 38.9199 46.2321C40.6739 49.7794 43.2093 53.2067 47.266 55.47ZM68.5761 51.6307L68.576 51.6307C63.1556 51.375 56.7681 50.3299 51.7088 47.5071C49.7985 46.4413 48.3582 44.7281 47.1256 42.2324C45.8517 39.6484 44.9597 36.5899 43.9381 33.0274L43.894 32.8736L43.8824 32.833C42.9243 29.4915 41.8328 25.685 40.1601 22.2939L40.1597 22.293C38.4052 18.7446 35.864 15.3192 31.8078 13.0561L31.8073 13.0559C24.9306 9.22392 16.8935 8.05746 10.8879 7.7758L10.8875 7.77578C10.615 7.76312 10.3462 7.75194 10.0808 7.74225C20.5 -0.768835 38.4041 -1.44803 54.4625 7.51141C73.0912 17.905 81.9435 37.1661 75.9221 51.5432C73.4782 51.7173 71.0252 51.7465 68.5761 51.6307Z" stroke="#7D8D71" stroke-width="2" />
</svg>
