<svg width="44" height="44" viewBox="0 0 44 44" fill="none" xmlns="http://www.w3.org/2000/svg">
<path d="M12.776 12.7765C12.9038 12.6485 13.0555 12.5469 13.2225 12.4776C13.3896 12.4082 13.5687 12.3726 13.7495 12.3726C13.9304 12.3726 14.1095 12.4082 14.2765 12.4776C14.4436 12.5469 14.5953 12.6485 14.723 12.7765L21.9995 20.0558L29.276 12.7765C29.4039 12.6487 29.5556 12.5473 29.7227 12.4781C29.8897 12.4089 30.0687 12.3733 30.2495 12.3733C30.4303 12.3733 30.6093 12.4089 30.7764 12.4781C30.9434 12.5473 31.0952 12.6487 31.223 12.7765C31.3509 12.9044 31.4523 13.0561 31.5215 13.2232C31.5907 13.3902 31.6263 13.5692 31.6263 13.75C31.6263 13.9308 31.5907 14.1098 31.5215 14.2769C31.4523 14.4439 31.3509 14.5957 31.223 14.7235L23.9438 22L31.223 29.2765C31.3509 29.4044 31.4523 29.5561 31.5215 29.7232C31.5907 29.8902 31.6263 30.0692 31.6263 30.25C31.6263 30.4308 31.5907 30.6098 31.5215 30.7769C31.4523 30.9439 31.3509 31.0957 31.223 31.2235C31.0952 31.3514 30.9434 31.4528 30.7764 31.522C30.6093 31.5911 30.4303 31.6268 30.2495 31.6268C30.0687 31.6268 29.8897 31.5911 29.7227 31.522C29.5556 31.4528 29.4039 31.3514 29.276 31.2235L21.9995 23.9443L14.723 31.2235C14.5952 31.3514 14.4434 31.4528 14.2764 31.522C14.1093 31.5911 13.9303 31.6268 13.7495 31.6268C13.5687 31.6268 13.3897 31.5911 13.2227 31.522C13.0556 31.4528 12.9039 31.3514 12.776 31.2235C12.6482 31.0957 12.5468 30.9439 12.4776 30.7769C12.4084 30.6098 12.3728 30.4308 12.3728 30.25C12.3728 30.0692 12.4084 29.8902 12.4776 29.7232C12.5468 29.5561 12.6482 29.4044 12.776 29.2765L20.0553 22L12.776 14.7235C12.648 14.5958 12.5464 14.4441 12.4771 14.277C12.4077 14.11 12.3721 13.9309 12.3721 13.75C12.3721 13.5692 12.4077 13.3901 12.4771 13.223C12.5464 13.056 12.648 12.9042 12.776 12.7765Z" fill="#2B2B2B"/>
</svg>
