<svg width="24" height="24" viewBox="0 0 24 24" fill="none" xmlns="http://www.w3.org/2000/svg">
<path d="M15 14L14.26 14.123C14.2421 14.0156 14.2479 13.9055 14.2769 13.8005C14.3058 13.6955 14.3573 13.5981 14.4277 13.515C14.4982 13.432 14.5858 13.3652 14.6847 13.3194C14.7835 13.2737 14.8911 13.25 15 13.25V14ZM4 14V14.75C3.80109 14.75 3.61032 14.671 3.46967 14.5303C3.32902 14.3897 3.25 14.1989 3.25 14H4ZM6 3.25H17.36V4.75H6V3.25ZM18.56 14.75H15V13.25H18.56V14.75ZM15.74 13.877L16.546 18.712L15.066 18.959L14.26 14.123L15.74 13.877ZM14.82 20.75H14.606V19.25H14.819L14.82 20.75ZM11.485 19.08L8.97 15.307L10.218 14.475L12.733 18.248L11.485 19.08ZM7.93 14.75H4V13.25H7.93V14.75ZM3.25 14V6H4.75V14H3.25ZM20.057 5.46L21.257 11.46L19.787 11.755L18.587 5.755L20.057 5.46ZM8.97 15.307C8.8559 15.1357 8.70127 14.9963 8.51985 14.8991C8.33842 14.8019 8.13581 14.7511 7.93 14.751V13.251C8.85 13.251 9.708 13.71 10.218 14.475L8.97 15.307ZM16.546 18.712C16.5878 18.9627 16.5745 19.2205 16.5071 19.4656C16.4396 19.7106 16.3196 19.938 16.1553 20.132C15.991 20.3259 15.7865 20.4818 15.5559 20.5887C15.3253 20.6956 15.0742 20.75 14.82 20.75V19.251C14.8562 19.2509 14.892 19.2429 14.9249 19.2276C14.9578 19.2123 14.9869 19.1901 15.0103 19.1624C15.0337 19.1347 15.0508 19.1023 15.0604 19.0673C15.07 19.0324 15.0719 18.9948 15.066 18.959L16.546 18.712ZM18.56 13.251C18.7449 13.251 18.9276 13.21 19.0948 13.1309C19.262 13.0519 19.4095 12.9366 19.5268 12.7936C19.6441 12.6506 19.7282 12.4834 19.773 12.3039C19.8178 12.1245 19.8222 11.9374 19.786 11.756L21.257 11.461C21.3367 11.86 21.327 12.2727 21.2284 12.6674C21.1298 13.0622 20.9448 13.4301 20.6868 13.7447C20.4288 14.0593 20.1042 14.3128 19.7365 14.4868C19.3687 14.6608 18.9669 14.7511 18.56 14.751V13.251ZM17.36 3.25C17.9957 3.24988 18.6118 3.471 19.1035 3.87392C19.5952 4.27684 19.9322 4.83667 20.057 5.46L18.587 5.755C18.5305 5.47122 18.3773 5.21682 18.1536 5.03336C17.9298 4.84991 17.6494 4.74976 17.36 4.75V3.25ZM14.606 20.75C13.9887 20.75 13.3809 20.5985 12.8366 20.3072C12.2923 20.0159 11.8284 19.5947 11.486 19.081L12.733 18.249C12.9385 18.5573 13.2171 18.8101 13.5438 18.9849C13.8706 19.1597 14.2354 19.2501 14.606 19.25V20.75ZM6 4.75C5.31 4.75 4.75 5.31 4.75 6H3.25C3.25 5.27065 3.53973 4.57118 4.05546 4.05546C4.57118 3.53973 5.27065 3.25 6 3.25V4.75Z" fill="#6B6A6A"/>
<path d="M8 14V4" stroke="#6B6A6A" stroke-width="1.5"/>
</svg>
