<svg width="124" height="124" viewBox="0 0 124 124" fill="none" xmlns="http://www.w3.org/2000/svg">
<g clip-path="url(#clip0_193_4844)">
<path d="M15.5 15.5C11.3891 15.5 7.44666 17.133 4.53984 20.0398C1.63303 22.9467 0 26.8891 0 31L0 93.0775C0.0204873 97.1749 1.66256 101.098 4.56715 103.988C7.47175 106.878 11.4025 108.5 15.5 108.5H58.125C59.1527 108.5 60.1383 108.092 60.865 107.365C61.5917 106.638 62 105.653 62 104.625C62 103.597 61.5917 102.612 60.865 101.885C60.1383 101.158 59.1527 100.75 58.125 100.75H15.5C13.794 100.75 12.1357 100.188 10.7821 99.1492C9.42852 98.1109 8.45534 96.655 8.0135 95.0072L51.7235 68.107L62 74.2682L116.25 41.7182V65.875C116.25 66.9027 116.658 67.8883 117.385 68.615C118.112 69.3417 119.097 69.75 120.125 69.75C121.153 69.75 122.138 69.3417 122.865 68.615C123.592 67.8883 124 66.9027 124 65.875V31C124 26.8891 122.367 22.9467 119.46 20.0398C116.553 17.133 112.611 15.5 108.5 15.5H15.5ZM44.237 63.612L7.75 86.0637V41.7182L44.237 63.612ZM7.75 32.6817V31C7.75 28.9446 8.56651 26.9733 10.0199 25.5199C11.4733 24.0665 13.4446 23.25 15.5 23.25H108.5C110.555 23.25 112.527 24.0665 113.98 25.5199C115.433 26.9733 116.25 28.9446 116.25 31V32.6817L62 65.2318L7.75 32.6817Z" fill="#7D8D71"/>
<path d="M110.414 110.585C118.242 110.585 122.714 103.943 122.714 94.891V93.2635C122.714 80.8325 113.46 69.75 97.03 69.75H96.7587C80.755 69.75 69.75 80.29 69.75 96.348V98.0065C69.75 114.855 80.8945 124 95.7745 124H96.1155C100.719 124 104.005 123.426 105.702 122.644V116.986C103.804 117.839 100.486 118.381 96.5572 118.381H96.2163C85.8778 118.381 76.291 112.274 76.291 97.805V96.5883C76.291 83.7465 84.4905 75.4773 96.751 75.4773H97.061C108.957 75.4773 116.312 83.6147 116.312 93.5037V94.4182C116.312 101.974 113.801 105.191 111.36 105.191C109.562 105.191 108.182 104.044 108.182 101.936V84.9633H101.161V89.373H100.928C100.277 87.0635 98.0763 84.4905 93.5348 84.4905C87.5053 84.4905 83.7775 88.7917 83.7775 95.3405V99.4325C83.7775 106.346 87.575 110.546 93.5425 110.546C97.1927 110.546 100.486 108.787 101.401 105.563H101.734C102.649 108.818 106.516 110.585 110.414 110.585ZM91.4035 98.2777V96.5185C91.4035 92.287 93.1627 90.3883 95.8442 90.3883C98.146 90.3883 100.277 91.8763 100.277 95.8753V98.7195C100.277 103.16 98.3165 104.486 95.9063 104.486C93.1628 104.486 91.4035 102.819 91.4035 98.2855V98.2777Z" fill="#7D8D71"/>
</g>
<defs>
<clipPath id="clip0_193_4844">
<rect width="124" height="124" fill="white"/>
</clipPath>
</defs>
</svg>
