<svg width="24" height="25" viewBox="0 0 24 25" fill="none" xmlns="http://www.w3.org/2000/svg">
<path d="M3.064 8.01C3.89638 6.35353 5.17282 4.96106 6.7508 3.98806C8.32878 3.01507 10.1462 2.49987 12 2.5C14.695 2.5 16.959 3.491 18.69 5.105L15.823 7.973C14.786 6.982 13.468 6.477 12 6.477C9.395 6.477 7.19 8.237 6.405 10.6C6.205 11.2 6.091 11.84 6.091 12.5C6.091 13.16 6.205 13.8 6.405 14.4C7.191 16.764 9.395 18.523 12 18.523C13.345 18.523 14.49 18.168 15.386 17.568C15.9054 17.226 16.3501 16.7822 16.6932 16.2635C17.0363 15.7448 17.2706 15.1619 17.382 14.55H12V10.682H21.418C21.536 11.336 21.6 12.018 21.6 12.727C21.6 15.773 20.51 18.337 18.618 20.077C16.964 21.605 14.7 22.5 12 22.5C10.6866 22.5005 9.38604 22.2422 8.17254 21.7399C6.95905 21.2375 5.85645 20.5009 4.92776 19.5722C3.99907 18.6436 3.2625 17.5409 2.76013 16.3275C2.25777 15.114 1.99948 13.8134 2 12.5C2 10.886 2.386 9.36 3.064 8.01Z" fill="#7D8D71"/>
</svg>
