<svg width="44" height="44" viewBox="0 0 44 44" fill="none" xmlns="http://www.w3.org/2000/svg">
<path d="M22.0003 16.0421C20.4201 16.0421 18.9046 16.6699 17.7871 17.7873C16.6697 18.9047 16.042 20.4202 16.042 22.0004C16.042 23.5807 16.6697 25.0962 17.7871 26.2136C18.9046 27.331 20.4201 27.9588 22.0003 27.9588C23.5806 27.9588 25.0961 27.331 26.2135 26.2136C27.3309 25.0962 27.9587 23.5807 27.9587 22.0004C27.9587 20.4202 27.3309 18.9047 26.2135 17.7873C25.0961 16.6699 23.5806 16.0421 22.0003 16.0421Z" fill="#7D8D71"/>
<path fill-rule="evenodd" clip-rule="evenodd" d="M12.4115 5.64978C18.7842 4.9434 25.2155 4.9434 31.5882 5.64978C35.0697 6.03845 37.8765 8.77928 38.2853 12.2736C39.0411 18.7355 39.0411 25.2634 38.2853 31.7253C37.8765 35.2196 35.0697 37.9604 31.59 38.3509C25.2167 39.0575 18.7848 39.0575 12.4115 38.3509C8.93 37.9604 6.12317 35.2196 5.71434 31.7271C4.9585 25.2646 4.9585 18.7361 5.71434 12.2736C6.12317 8.77928 8.93 6.03845 12.4115 5.64978ZM31.1665 10.9994C30.6803 10.9994 30.214 11.1926 29.8701 11.5364C29.5263 11.8802 29.3332 12.3466 29.3332 12.8328C29.3332 13.319 29.5263 13.7853 29.8701 14.1291C30.214 14.473 30.6803 14.6661 31.1665 14.6661C31.6527 14.6661 32.119 14.473 32.4629 14.1291C32.8067 13.7853 32.9998 13.319 32.9998 12.8328C32.9998 12.3466 32.8067 11.8802 32.4629 11.5364C32.119 11.1926 31.6527 10.9994 31.1665 10.9994ZM13.2915 21.9994C13.2915 19.6899 14.209 17.4749 15.8421 15.8417C17.4752 14.2086 19.6902 13.2911 21.9998 13.2911C24.3094 13.2911 26.5244 14.2086 28.1576 15.8417C29.7907 17.4749 30.7082 19.6899 30.7082 21.9994C30.7082 24.309 29.7907 26.524 28.1576 28.1572C26.5244 29.7903 24.3094 30.7078 21.9998 30.7078C19.6902 30.7078 17.4752 29.7903 15.8421 28.1572C14.209 26.524 13.2915 24.309 13.2915 21.9994Z" fill="#7D8D71"/>
</svg>
