<svg width="25" height="24" viewBox="0 0 25 24" fill="none" xmlns="http://www.w3.org/2000/svg">
<path d="M12.5 0C9.3174 0 6.26515 1.26428 4.01472 3.51472C1.76428 5.76515 0.5 8.8174 0.5 12C0.5 15.1826 1.76428 18.2348 4.01472 20.4853C6.26515 22.7357 9.3174 24 12.5 24C15.6826 24 18.7348 22.7357 20.9853 20.4853C23.2357 18.2348 24.5 15.1826 24.5 12C24.5 8.8174 23.2357 5.76515 20.9853 3.51472C18.7348 1.26428 15.6826 0 12.5 0ZM12.5 2.4C13.825 2.4 14.9 3.476 14.9 4.8C14.8997 5.43616 14.6468 6.04618 14.197 6.496C14.0223 6.67113 13.8216 6.8182 13.602 6.932L16.58 19.199L12.5 21.602L8.42 19.199L11.398 6.932C11.1791 6.81802 10.9791 6.67096 10.805 6.496C10.3554 6.04643 10.1026 5.43682 10.102 4.801C10.1017 4.16465 10.3542 3.55425 10.8039 3.104C11.2536 2.65376 11.8637 2.40053 12.5 2.4Z" fill="#2B2B2B"/>
</svg>
