<svg width="29" height="29" viewBox="0 0 29 29" fill="none" xmlns="http://www.w3.org/2000/svg">
<g clip-path="url(#clip0_29_712)">
<path d="M11.5614 0.526246C10.1675 0.525819 8.78722 0.80004 7.49932 1.33324C6.21143 1.86644 5.04121 2.64818 4.05552 3.63378C3.06983 4.61938 2.28799 5.78954 1.75466 7.07739C1.22134 8.36525 0.946982 9.74557 0.947266 11.1395C0.94684 12.5335 1.22109 13.9139 1.75435 15.2019C2.28762 16.4899 3.06943 17.6602 4.05514 18.6459C5.04084 19.6316 6.21111 20.4135 7.49907 20.9467C8.78704 21.48 10.1675 21.7543 11.5614 21.7538C14.0384 21.7538 16.3131 20.8766 18.1195 19.4553L19.0659 20.4018C18.8716 20.7794 18.8027 21.2091 18.8695 21.6285C18.9362 22.048 19.135 22.4352 19.4369 22.7338L24.406 27.7365C25.1772 28.5088 26.4395 28.5088 27.2118 27.7365L28.1582 26.79C28.5288 26.4172 28.7367 25.9128 28.7367 25.3871C28.7367 24.8614 28.5288 24.3571 28.1582 23.9842L23.1556 19.0151C22.8552 18.7146 22.4657 18.5193 22.0451 18.4585C21.6246 18.3977 21.1957 18.4745 20.8225 18.6776L19.8761 17.7311C21.1149 16.1678 21.8881 14.2869 22.107 12.3043C22.3259 10.3216 21.9817 8.31736 21.1137 6.52138C20.2458 4.7254 18.8893 3.21037 17.1998 2.15001C15.5103 1.08965 13.5561 0.526887 11.5614 0.526246ZM11.5614 2.48621C13.8564 2.48621 16.0574 3.3979 17.6802 5.0207C19.3029 6.64351 20.2146 8.8445 20.2146 11.1395C20.2146 13.4345 19.3029 15.6355 17.6802 17.2583C16.0574 18.8811 13.8564 19.7928 11.5614 19.7928C9.26649 19.7928 7.06552 18.8811 5.44274 17.2583C3.81996 15.6355 2.90829 13.4345 2.90829 11.1395C2.90829 8.8445 3.81996 6.64351 5.44274 5.0207C7.06552 3.3979 9.26649 2.48621 11.5614 2.48621Z" fill="#2B2B2B"/>
<g clip-path="url(#clip1_29_712)">
<path fill-rule="evenodd" clip-rule="evenodd" d="M11.4053 15.7542C13.2328 15.76 14.8436 13.9162 15.0616 11.5064C15.2585 9.32544 14.2494 7.39707 12.7229 6.81142C12.7727 6.92275 12.8197 7.03539 12.8636 7.14922C13.1026 7.76163 13.3393 8.60675 13.2638 9.44842C13.2203 9.93012 13.0018 10.3196 12.7314 10.6454C12.4709 10.9596 12.1419 11.2357 11.8453 11.4845L11.8318 11.4959C11.5197 11.7577 11.2428 11.9917 11.0317 12.2456C10.826 12.4932 10.7043 12.7363 10.6799 13.0066C10.6201 13.6694 10.8081 14.3797 11.0285 14.9459C11.1367 15.2232 11.2626 15.4932 11.4053 15.7542ZM10.4366 15.5728C8.91007 14.9871 7.90095 13.0588 8.09785 10.8778C8.31543 8.46752 9.92705 6.62467 11.7541 6.62999C11.8967 6.89117 12.0224 7.1613 12.1305 7.43871C12.3509 8.00403 12.5394 8.71485 12.4796 9.37763C12.4552 9.64791 12.3335 9.89098 12.1278 10.1386C11.9166 10.3925 11.6397 10.6265 11.3277 10.8883L11.3141 10.8997C11.0176 11.1486 10.6886 11.4246 10.4277 11.7383C10.1573 12.0642 9.93918 12.4541 9.89569 12.9358C9.82016 13.7775 10.0569 14.6226 10.2958 15.235C10.3431 15.3559 10.39 15.4685 10.4366 15.5728Z" fill="#2B2B2B"/>
</g>
</g>
<defs>
<clipPath id="clip0_29_712">
<rect width="27.7895" height="27.7895" fill="white" transform="translate(0.947266 0.526245)"/>
</clipPath>
<clipPath id="clip1_29_712">
<rect width="8.8421" height="8.8421" fill="white" transform="matrix(0.766044 -0.642788 0.638541 0.769588 5.37012 10.6315)"/>
</clipPath>
</defs>
</svg>
