<svg viewBox="0 0 14 19" xmlns="http://www.w3.org/2000/svg">
<path d="M7.08 18.24C5.784 18.24 4.704 18.048 3.84 17.664C2.976 17.264 2.328 16.704 1.896 15.984C1.464 15.248 1.248 14.376 1.248 13.368C1.248 13.144 1.256 12.928 1.272 12.72C1.304 12.496 1.352 12.28 1.416 12.072H0.24V10.296H2.328C2.472 10.12 2.632 9.96 2.808 9.816C2.984 9.656 3.168 9.504 3.36 9.36C3.568 9.216 3.784 9.08 4.008 8.952C4.232 8.808 4.464 8.68 4.704 8.568H0.24V6.792H8.256C8.464 6.6 8.616 6.384 8.712 6.144C8.824 5.888 8.88 5.6 8.88 5.28C8.88 4.928 8.792 4.632 8.616 4.392C8.456 4.152 8.216 3.968 7.896 3.84C7.576 3.712 7.176 3.648 6.696 3.648C6.264 3.648 5.832 3.688 5.4 3.768C4.984 3.848 4.544 3.96 4.08 4.104C3.616 4.248 3.12 4.432 2.592 4.656L1.512 1.824C2.344 1.456 3.208 1.168 4.104 0.959999C5.016 0.735999 5.976 0.623999 6.984 0.623999C8.104 0.623999 9.064 0.807999 9.864 1.176C10.68 1.528 11.312 2.056 11.76 2.76C12.208 3.464 12.432 4.328 12.432 5.352C12.432 5.608 12.416 5.856 12.384 6.096C12.352 6.336 12.304 6.568 12.24 6.792H13.464V8.568H11.232C11.056 8.76 10.856 8.944 10.632 9.12C10.424 9.28 10.2 9.432 9.96 9.576C9.736 9.704 9.496 9.832 9.24 9.96C9 10.072 8.752 10.184 8.496 10.296H13.464V12.072H5.256C5.096 12.248 4.976 12.448 4.896 12.672C4.832 12.88 4.8 13.112 4.8 13.368C4.8 13.752 4.888 14.088 5.064 14.376C5.256 14.648 5.536 14.864 5.904 15.024C6.288 15.168 6.752 15.24 7.296 15.24C8.16 15.24 9.008 15.144 9.84 14.952C10.672 14.744 11.504 14.472 12.336 14.136V17.16C11.648 17.496 10.856 17.76 9.96 17.952C9.064 18.144 8.104 18.24 7.08 18.24Z" />
</svg>
