<svg width="40" height="40" viewBox="0 0 40 40" fill="none" xmlns="http://www.w3.org/2000/svg">
<path d="M20.0003 6.66663C21.7684 6.66663 23.4641 7.369 24.7144 8.61925C25.9646 9.86949 26.667 11.5652 26.667 13.3333C26.667 15.1014 25.9646 16.7971 24.7144 18.0473C23.4641 19.2976 21.7684 20 20.0003 20C18.2322 20 16.5365 19.2976 15.2863 18.0473C14.036 16.7971 13.3337 15.1014 13.3337 13.3333C13.3337 11.5652 14.036 9.86949 15.2863 8.61925C16.5365 7.369 18.2322 6.66663 20.0003 6.66663ZM20.0003 23.3333C27.367 23.3333 33.3337 26.3166 33.3337 30V33.3333H6.66699V30C6.66699 26.3166 12.6337 23.3333 20.0003 23.3333Z" fill="#2B2B2B"/>
</svg>
