<svg width="83" height="83" viewBox="0 0 83 83" fill="none" xmlns="http://www.w3.org/2000/svg">
<g clip-path="url(#clip0_225_820)">
<path fill-rule="evenodd" clip-rule="evenodd" d="M69.0894 72C61.7534 78.6435 52.0219 82.6904 41.3452 82.6904C30.6685 82.6904 20.9371 78.6435 13.6011 72H69.0894ZM80 56.0475V56H51.3185L56.908 49.1993C56.9892 49.0984 57.5442 48.3489 57.5442 48.3489L57.5461 48.3432C60.2004 44.7325 61.6351 40.3242 61.6308 35.7927C61.6245 30.2445 59.4852 24.9255 55.6824 21.0023C51.8795 17.0792 46.7235 14.8723 41.3454 14.8657C35.9673 14.8723 30.8113 17.0792 27.0084 21.0023C23.2055 24.9255 21.0663 30.2445 21.0599 35.7927C21.055 40.3264 22.4905 44.7369 25.1465 48.3489C25.1465 48.3489 25.6998 49.1003 25.7901 49.2088L31.3719 56H2.67237C0.945372 51.445 0 46.5055 0 41.3452C0 18.5109 18.5109 0 41.3452 0C64.1796 0 82.6904 18.5109 82.6904 41.3452C82.6904 46.5235 81.7385 51.4794 80 56.0475ZM41.3454 43.4025C39.8864 43.4025 38.4603 42.9562 37.2472 42.12C36.0341 41.2838 35.0887 40.0954 34.5304 38.7048C33.9721 37.3143 33.826 35.7843 34.1106 34.3081C34.3952 32.8319 35.0978 31.476 36.1294 30.4117C37.161 29.3475 38.4754 28.6227 39.9063 28.3291C41.3372 28.0355 42.8204 28.1862 44.1683 28.7621C45.5161 29.3381 46.6682 30.3135 47.4787 31.5649C48.2893 32.8163 48.7219 34.2876 48.7219 35.7927C48.7195 37.8102 47.9415 39.7443 46.5587 41.1709C45.1758 42.5974 43.301 43.4 41.3454 43.4025Z" fill="#7D8D71"/>
<path d="M14.8968 68.244C14.7288 68.356 14.5002 68.482 14.2108 68.622C13.9215 68.762 13.5808 68.8787 13.1888 68.972C12.8062 69.0653 12.3862 69.112 11.9288 69.112C11.1448 69.1027 10.4355 68.9627 9.80084 68.692C9.1755 68.4213 8.6435 68.0527 8.20484 67.586C7.76617 67.1193 7.4255 66.5827 7.18284 65.976C6.9495 65.36 6.83284 64.7067 6.83284 64.016C6.83284 63.26 6.95417 62.5647 7.19684 61.93C7.44884 61.286 7.79884 60.7307 8.24684 60.264C8.69484 59.788 9.22217 59.4193 9.82884 59.158C10.4448 58.8967 11.1168 58.766 11.8448 58.766C12.4515 58.766 13.0022 58.85 13.4968 59.018C13.9915 59.1767 14.4162 59.368 14.7708 59.592L14.2248 60.852C13.9448 60.6653 13.6042 60.488 13.2028 60.32C12.8108 60.152 12.3722 60.068 11.8868 60.068C11.3922 60.068 10.9255 60.166 10.4868 60.362C10.0482 60.558 9.66084 60.8333 9.32484 61.188C8.98884 61.5427 8.72284 61.958 8.52684 62.434C8.34017 62.9007 8.24684 63.4047 8.24684 63.946C8.24684 64.4967 8.33084 65.01 8.49884 65.486C8.67617 65.9527 8.9235 66.3587 9.24084 66.704C9.5675 67.0493 9.9595 67.32 10.4168 67.516C10.8742 67.712 11.3875 67.81 11.9568 67.81C12.4702 67.81 12.9275 67.7307 13.3288 67.572C13.7302 67.4133 14.0615 67.236 14.3228 67.04L14.8968 68.244ZM16.3575 66.046C16.3575 65.4673 16.4929 64.9447 16.7635 64.478C17.0435 64.0113 17.4262 63.6427 17.9115 63.372C18.3969 63.1013 18.9475 62.966 19.5635 62.966C20.1982 62.966 20.7535 63.1013 21.2295 63.372C21.7055 63.6427 22.0742 64.0113 22.3355 64.478C22.5969 64.9447 22.7275 65.4673 22.7275 66.046C22.7275 66.6247 22.5969 67.152 22.3355 67.628C22.0742 68.0947 21.7009 68.4633 21.2155 68.734C20.7395 69.0047 20.1842 69.14 19.5495 69.14C18.9335 69.14 18.3829 69.014 17.8975 68.762C17.4215 68.5007 17.0435 68.1413 16.7635 67.684C16.4929 67.2173 16.3575 66.6713 16.3575 66.046ZM17.6595 66.06C17.6595 66.4333 17.7435 66.774 17.9115 67.082C18.0795 67.3807 18.3035 67.6187 18.5835 67.796C18.8729 67.9733 19.1902 68.062 19.5355 68.062C19.8995 68.062 20.2215 67.9733 20.5015 67.796C20.7909 67.6187 21.0149 67.3807 21.1735 67.082C21.3322 66.774 21.4115 66.4333 21.4115 66.06C21.4115 65.6867 21.3322 65.3507 21.1735 65.052C21.0149 64.744 20.7909 64.5013 20.5015 64.324C20.2215 64.1373 19.8995 64.044 19.5355 64.044C19.1809 64.044 18.8589 64.1373 18.5695 64.324C18.2895 64.5107 18.0655 64.758 17.8975 65.066C17.7389 65.3647 17.6595 65.696 17.6595 66.06ZM24.9664 69V64.366H23.9724V63.204H24.9664V60.754C24.9664 59.914 25.1531 59.27 25.5264 58.822C25.9091 58.374 26.4691 58.15 27.2064 58.15C27.4024 58.15 27.6171 58.178 27.8504 58.234C28.0931 58.29 28.3031 58.3833 28.4804 58.514L27.9344 59.452C27.8504 59.368 27.7571 59.312 27.6544 59.284C27.5518 59.2467 27.4491 59.228 27.3464 59.228C27.0011 59.228 26.7351 59.3447 26.5484 59.578C26.3618 59.8113 26.2684 60.208 26.2684 60.768V63.204H28.1024V64.366H26.2684V69H24.9664ZM29.2364 69V64.366H28.2424V63.204H29.2364V60.754C29.2364 59.914 29.4231 59.27 29.7964 58.822C30.1791 58.374 30.7391 58.15 31.4764 58.15C31.6724 58.15 31.8871 58.178 32.1204 58.234C32.3631 58.29 32.5731 58.3833 32.7504 58.514L32.2044 59.452C32.1204 59.368 32.0271 59.312 31.9244 59.284C31.8218 59.2467 31.7191 59.228 31.6164 59.228C31.2711 59.228 31.0051 59.3447 30.8184 59.578C30.6318 59.8113 30.5384 60.208 30.5384 60.768V63.204H32.3724V64.366H30.5384V69H29.2364ZM36.6941 69.14C36.0314 69.14 35.4621 69.0093 34.9861 68.748C34.5101 68.4773 34.1414 68.1133 33.8801 67.656C33.6281 67.1893 33.5021 66.6573 33.5021 66.06C33.5021 65.4907 33.6467 64.9727 33.9361 64.506C34.2254 64.0393 34.6127 63.666 35.0981 63.386C35.5834 63.106 36.1247 62.966 36.7221 62.966C37.4874 62.966 38.1221 63.19 38.6261 63.638C39.1301 64.086 39.4707 64.702 39.6481 65.486L34.8741 67.166L34.5661 66.396L38.4861 64.968L38.2061 65.15C38.0941 64.842 37.9074 64.576 37.6461 64.352C37.3847 64.1187 37.0441 64.002 36.6241 64.002C36.2694 64.002 35.9521 64.0907 35.6721 64.268C35.3921 64.436 35.1727 64.6693 35.0141 64.968C34.8554 65.2667 34.7761 65.6073 34.7761 65.99C34.7761 66.3913 34.8601 66.746 35.0281 67.054C35.1961 67.3527 35.4247 67.5907 35.7141 67.768C36.0127 67.936 36.3487 68.02 36.7221 68.02C36.9741 68.02 37.2167 67.9733 37.4501 67.88C37.6927 67.7867 37.9167 67.6653 38.1221 67.516L38.7241 68.482C38.4347 68.678 38.1081 68.8367 37.7441 68.958C37.3894 69.0793 37.0394 69.14 36.6941 69.14ZM43.9675 69.14C43.3048 69.14 42.7355 69.0093 42.2595 68.748C41.7835 68.4773 41.4148 68.1133 41.1535 67.656C40.9015 67.1893 40.7755 66.6573 40.7755 66.06C40.7755 65.4907 40.9202 64.9727 41.2095 64.506C41.4988 64.0393 41.8862 63.666 42.3715 63.386C42.8568 63.106 43.3982 62.966 43.9955 62.966C44.7608 62.966 45.3955 63.19 45.8995 63.638C46.4035 64.086 46.7442 64.702 46.9215 65.486L42.1475 67.166L41.8395 66.396L45.7595 64.968L45.4795 65.15C45.3675 64.842 45.1808 64.576 44.9195 64.352C44.6582 64.1187 44.3175 64.002 43.8975 64.002C43.5428 64.002 43.2255 64.0907 42.9455 64.268C42.6655 64.436 42.4462 64.6693 42.2875 64.968C42.1288 65.2667 42.0495 65.6073 42.0495 65.99C42.0495 66.3913 42.1335 66.746 42.3015 67.054C42.4695 67.3527 42.6982 67.5907 42.9875 67.768C43.2862 67.936 43.6222 68.02 43.9955 68.02C44.2475 68.02 44.4902 67.9733 44.7235 67.88C44.9662 67.7867 45.1902 67.6653 45.3955 67.516L45.9975 68.482C45.7082 68.678 45.3815 68.8367 45.0175 68.958C44.6628 69.0793 44.3128 69.14 43.9675 69.14ZM49.7149 63.204L49.8269 64.618L49.7709 64.394C49.9576 63.9647 50.2609 63.624 50.6809 63.372C51.1009 63.1107 51.5863 62.98 52.1369 62.98C52.6876 62.98 53.1356 63.1433 53.4809 63.47C53.8356 63.7873 54.0176 64.2027 54.0269 64.716V69H52.7109V65.178C52.7016 64.8607 52.6083 64.604 52.4309 64.408C52.2629 64.2027 51.9969 64.1 51.6329 64.1C51.2969 64.1 50.9936 64.1933 50.7229 64.38C50.4523 64.5667 50.2376 64.8233 50.0789 65.15C49.9296 65.4767 49.8549 65.8547 49.8549 66.284V69H48.5529V63.204H49.7149ZM58.6432 69.14C58.1112 69.14 57.6259 69.014 57.1872 68.762C56.7579 68.5007 56.4172 68.1367 56.1652 67.67C55.9132 67.194 55.7872 66.648 55.7872 66.032C55.7872 65.388 55.9179 64.8373 56.1792 64.38C56.4499 63.9227 56.8139 63.5727 57.2712 63.33C57.7286 63.0873 58.2419 62.966 58.8112 62.966C59.2686 62.966 59.7026 63.064 60.1132 63.26C60.5332 63.456 60.8599 63.7267 61.0932 64.072L61.0372 64.534V58.164H62.3252V69H61.0232V67.558L61.1632 67.922C60.8926 68.2767 60.5426 68.5707 60.1132 68.804C59.6839 69.028 59.1939 69.14 58.6432 69.14ZM59.0492 68.034C59.3946 68.034 59.7026 67.9733 59.9732 67.852C60.2439 67.7213 60.4679 67.544 60.6452 67.32C60.8226 67.096 60.9486 66.83 61.0232 66.522V65.43C60.9486 65.15 60.8132 64.9073 60.6172 64.702C60.4306 64.4873 60.2019 64.3193 59.9312 64.198C59.6699 64.0673 59.3759 64.002 59.0492 64.002C58.6946 64.002 58.3679 64.0907 58.0692 64.268C57.7799 64.436 57.5466 64.6693 57.3692 64.968C57.1919 65.2667 57.1032 65.612 57.1032 66.004C57.1032 66.3867 57.1919 66.732 57.3692 67.04C57.5466 67.3387 57.7846 67.5813 58.0832 67.768C58.3819 67.9453 58.7039 68.034 59.0492 68.034ZM67.2781 69.14C66.6154 69.14 66.0461 69.0093 65.5701 68.748C65.0941 68.4773 64.7254 68.1133 64.4641 67.656C64.2121 67.1893 64.0861 66.6573 64.0861 66.06C64.0861 65.4907 64.2307 64.9727 64.5201 64.506C64.8094 64.0393 65.1967 63.666 65.6821 63.386C66.1674 63.106 66.7087 62.966 67.3061 62.966C68.0714 62.966 68.7061 63.19 69.2101 63.638C69.7141 64.086 70.0547 64.702 70.2321 65.486L65.4581 67.166L65.1501 66.396L69.0701 64.968L68.7901 65.15C68.6781 64.842 68.4914 64.576 68.2301 64.352C67.9687 64.1187 67.6281 64.002 67.2081 64.002C66.8534 64.002 66.5361 64.0907 66.2561 64.268C65.9761 64.436 65.7567 64.6693 65.5981 64.968C65.4394 65.2667 65.3601 65.6073 65.3601 65.99C65.3601 66.3913 65.4441 66.746 65.6121 67.054C65.7801 67.3527 66.0087 67.5907 66.2981 67.768C66.5967 67.936 66.9327 68.02 67.3061 68.02C67.5581 68.02 67.8007 67.9733 68.0341 67.88C68.2767 67.7867 68.5007 67.6653 68.7061 67.516L69.3081 68.482C69.0187 68.678 68.6921 68.8367 68.3281 68.958C67.9734 69.0793 67.6234 69.14 67.2781 69.14ZM73.0255 63.204L73.1515 64.884L73.0815 64.66C73.2308 64.3053 73.4455 64.0067 73.7255 63.764C74.0148 63.512 74.3135 63.3207 74.6215 63.19C74.9388 63.05 75.2142 62.98 75.4475 62.98L75.3775 64.268C74.9388 64.24 74.5515 64.324 74.2155 64.52C73.8888 64.716 73.6275 64.9773 73.4315 65.304C73.2448 65.6307 73.1515 65.9807 73.1515 66.354V69H71.8635V63.204H73.0255Z" fill="#7D8D71"/>
</g>
<defs>
<clipPath id="clip0_225_820">
<rect width="83" height="83" fill="white"/>
</clipPath>
</defs>
</svg>
